<svg xmlns="http://www.w3.org/2000/svg" viewBox="0 0 900 900">
  <rect width="900" height="900" fill="#fff"/>
  <g fill="none" stroke="#111" stroke-linecap="round" stroke-linejoin="round" stroke-width="26">
    <path d="M451 96c-116 0-210 96-210 214 0 95 63 176 150 204l-32 60h183l-32-60c88-28 150-109 150-204 0-118-94-214-209-214z"/>
    <path d="M451 575c-2 75 48 96 9 169-27 51-19 86 24 105"/>
    <path d="M368 158c-39 31-64 82-64 140"/>
    <path d="M451 575l-53 82"/>
    <path d="M451 575l58 76"/>
  </g>
</svg>
